<svg version="1.1" id="Layer_1" xmlns="http://www.w3.org/2000/svg" xmlns:xlink="http://www.w3.org/1999/xlink" x="0px" y="0px"
	 width="100%" viewBox="0 0 912 912" enable-background="new 0 0 912 912" xml:space="preserve">
<path fill="#FFFEFE" opacity="1.000000" stroke="none" 
	d="
M468.000000,0.999999 
	C616.262024,1.000000 764.524109,1.000000 913.000000,1.000000 
	C913.000000,149.357346 913.000000,297.714783 912.623535,446.321289 
	C910.536438,427.354156 909.719849,408.008362 906.956970,388.944702 
	C896.253296,315.089905 868.945984,247.650192 824.117249,188.075562 
	C739.716553,75.912308 627.202515,13.915120 486.992340,2.794985 
	C480.653992,2.292289 474.330444,1.602595 468.000000,0.999999 
z"/>
<path fill="#FFFEFE" opacity="1.000000" stroke="none" 
	d="
M913.000000,468.000000 
	C913.000000,616.261963 913.000000,764.523987 913.000000,913.000000 
	C764.976013,913.000000 616.951904,913.000000 468.673401,912.619690 
	C469.079224,912.166870 469.738068,912.047974 470.399841,912.028564 
	C535.353577,910.126953 597.032898,894.922119 655.600220,866.785156 
	C801.949951,796.475708 901.016235,649.512146 911.185730,487.500977 
	C911.594543,480.988342 912.386536,474.499786 913.000000,468.000000 
z"/>
<path fill="#FFFEFE" opacity="1.000000" stroke="none" 
	d="
M1.000000,446.000000 
	C1.000000,297.738098 1.000000,149.476196 1.000000,1.000000 
	C148.690674,1.000000 296.381470,1.000000 444.328430,1.381610 
	C443.925720,1.841847 443.268372,1.970964 442.607635,1.991929 
	C378.008636,4.041603 316.658966,19.223675 258.403839,47.211510 
	C112.051193,117.524544 12.983116,264.486786 2.814389,426.498718 
	C2.405617,433.011444 1.613505,439.500122 1.000000,446.000000 
z"/>
<path fill="#FFFEFE" opacity="1.000000" stroke="none" 
	d="
M445.000000,913.000000 
	C297.071259,913.000000 149.142502,913.000000 1.000000,913.000000 
	C1.000000,764.976013 1.000000,616.951904 1.377178,468.677917 
	C1.829107,469.087769 1.953511,469.746155 1.971516,470.407410 
	C3.124453,512.752502 10.255470,554.073608 22.878136,594.501648 
	C78.227966,771.776733 240.816498,899.504028 426.015472,911.163513 
	C432.357025,911.562744 438.672424,912.378418 445.000000,913.000000 
z"/>
<path fill="#EE2528" opacity="1.000000" stroke="none" 
	d="
M445.468628,913.000000 
	C438.672424,912.378418 432.357025,911.562744 426.015472,911.163513 
	C240.816498,899.504028 78.227966,771.776733 22.878136,594.501648 
	C10.255470,554.073608 3.124453,512.752502 1.971516,470.407410 
	C1.953511,469.746155 1.829107,469.087769 1.377178,468.214020 
	C1.000000,460.979034 1.000000,453.958099 1.000000,446.468567 
	C1.613505,439.500122 2.405617,433.011444 2.814389,426.498718 
	C12.983116,264.486786 112.051193,117.524544 258.403839,47.211510 
	C316.658966,19.223675 378.008636,4.041603 442.607635,1.991929 
	C443.268372,1.970964 443.925720,1.841847 444.792328,1.381610 
	C452.354248,1.000000 459.708496,1.000000 467.531372,0.999999 
	C474.330444,1.602595 480.653992,2.292289 486.992340,2.794985 
	C627.202515,13.915120 739.716553,75.912308 824.117249,188.075562 
	C868.945984,247.650192 896.253296,315.089905 906.956970,388.944702 
	C909.719849,408.008362 910.536438,427.354156 912.623535,446.785156 
	C913.000000,453.687653 913.000000,460.375275 913.000000,467.531464 
	C912.386536,474.499786 911.594543,480.988342 911.185730,487.500977 
	C901.016235,649.512146 801.949951,796.475708 655.600220,866.785156 
	C597.032898,894.922119 535.353577,910.126953 470.399841,912.028564 
	C469.738068,912.047974 469.079224,912.166870 468.209503,912.619690 
	C460.645752,913.000000 453.291504,913.000000 445.468628,913.000000 
M881.312744,585.720276 
	C902.405151,515.492249 906.418274,444.265778 892.073730,372.388000 
	C868.929932,256.418030 809.081604,163.342072 712.683105,95.156662 
	C611.664062,23.702971 498.943420,-0.459046 377.255127,21.101295 
	C274.860382,39.243275 189.211304,88.689499 121.541130,167.471771 
	C42.686508,259.275085 7.587447,366.455963 14.822215,487.291107 
	C18.369793,546.542725 33.925163,602.690857 60.580715,655.677307 
	C132.397369,798.436096 273.659454,891.068542 433.391479,899.714844 
	C506.509338,903.672668 576.869141,890.921082 643.053589,859.359253 
	C761.575256,802.838928 840.899475,711.596252 881.312744,585.720276 
z"/>
<path fill="#FFFEFE" opacity="1.000000" stroke="none" 
	d="
M881.216431,586.109070 
	C840.899475,711.596252 761.575256,802.838928 643.053589,859.359253 
	C576.869141,890.921082 506.509338,903.672668 433.391479,899.714844 
	C273.659454,891.068542 132.397369,798.436096 60.580715,655.677307 
	C33.925163,602.690857 18.369793,546.542725 14.822215,487.291107 
	C7.587447,366.455963 42.686508,259.275085 121.541130,167.471771 
	C189.211304,88.689499 274.860382,39.243275 377.255127,21.101295 
	C498.943420,-0.459046 611.664062,23.702971 712.683105,95.156662 
	C809.081604,163.342072 868.929932,256.418030 892.073730,372.388000 
	C906.418274,444.265778 902.405151,515.492249 881.216431,586.109070 
M325.631256,482.899750 
	C334.063416,503.355255 342.600830,523.768616 350.825378,544.307312 
	C352.214905,547.777283 354.056763,548.564697 357.469116,548.538208 
	C376.131042,548.393311 394.795532,548.580078 413.457489,548.436096 
	C429.966644,548.308777 445.843506,544.973145 460.883698,538.057251 
	C525.557129,508.318695 560.413025,440.381287 546.847778,370.572449 
	C535.057190,309.896332 484.707153,261.012665 423.307678,252.108597 
	C406.447327,249.663544 389.107147,250.510056 371.985199,249.900131 
	C368.391418,249.772125 364.789185,249.881531 360.706909,249.881531 
	C361.425598,251.901245 361.857605,253.299957 362.412872,254.647888 
	C370.583557,274.482056 379.006348,294.217072 386.832916,314.185852 
	C389.788300,321.726257 392.278961,328.541077 402.460144,325.250732 
	C459.099823,327.789642 493.102356,390.389923 463.609283,438.946136 
	C451.386414,459.069366 434.480011,473.569885 408.667603,472.801849 
	C405.260010,472.700470 403.772034,471.637878 402.523254,468.601501 
	C373.177612,397.247070 343.691437,325.950409 314.431763,254.560883 
	C312.861450,250.729492 310.996979,249.841064 307.186737,249.863342 
	C280.026276,250.022079 252.862946,250.094421 225.704453,249.814774 
	C220.785858,249.764130 218.613174,251.180878 216.713242,255.771561 
	C179.890350,344.744537 142.860260,433.631714 105.872391,522.536438 
	C102.383385,530.922668 98.891899,539.307861 95.195900,548.187622 
	C167.194473,548.187622 238.541077,548.187622 310.184875,548.187622 
	C310.013824,547.228149 310.011383,546.569763 309.779388,546.005676 
	C300.101898,522.472900 290.459686,498.925018 280.566284,475.483185 
	C279.987488,474.111755 277.368927,472.842743 275.680237,472.817505 
	C261.519501,472.605927 247.354187,472.696564 233.190262,472.696289 
	C225.587418,472.696136 217.984589,472.696259 209.592957,472.696259 
	C228.369400,427.548553 246.862595,383.081940 265.740723,337.689728 
	C285.791779,386.365784 305.534210,434.292664 325.631256,482.899750 
M697.086914,506.288330 
	C692.385559,492.980774 687.684265,479.673187 683.077759,466.633972 
	C679.297546,466.633972 676.034729,466.633972 672.534790,466.633972 
	C672.534790,493.849854 672.534790,520.748962 672.534790,547.842957 
	C675.017090,547.842957 677.227783,547.842957 679.902100,547.842957 
	C679.902100,525.519104 679.902100,503.527496 679.902100,481.535858 
	C681.193176,482.540558 681.636047,483.726898 682.057068,484.920929 
	C689.021484,504.670624 695.993164,524.417786 702.931396,544.176636 
	C703.713623,546.404358 704.220215,548.200745 707.455811,548.312317 
	C710.991699,548.434204 711.519592,546.467346 712.374695,544.027893 
	C718.973572,525.203247 725.627625,506.397919 732.290894,487.595947 
	C732.959473,485.709381 733.803833,483.885132 734.566589,482.031952 
	C734.975098,482.128265 735.383606,482.224548 735.792114,482.320862 
	C735.792114,504.185791 735.792114,526.050720 735.792114,547.874878 
	C738.470886,547.874878 740.553223,547.874878 742.777466,547.874878 
	C742.777466,520.674194 742.777466,493.768494 742.777466,466.903473 
	C732.880859,465.200714 732.869446,465.196655 729.763611,473.945801 
	C722.924011,493.212585 716.101562,512.485413 709.253845,531.749268 
	C708.866394,532.839233 708.313171,533.870300 707.538269,535.593201 
	C703.933472,525.493225 700.638916,516.262268 697.086914,506.288330 
M796.498230,509.818787 
	C802.101746,509.818787 807.705261,509.818787 813.470093,509.818787 
	C813.470093,507.221924 813.470093,505.303009 813.470093,502.803894 
	C799.494934,502.803894 785.760132,502.803894 772.056030,502.803894 
	C772.056030,492.654266 772.056030,483.093842 772.056030,473.131226 
	C787.429382,473.131226 802.378662,473.131226 817.285950,473.131226 
	C817.285950,470.667511 817.285950,468.624939 817.285950,466.556519 
	C799.412476,466.556519 781.977661,466.556519 764.346741,466.556519 
	C764.346741,493.864838 764.346741,520.897461 764.346741,548.042053 
	C782.633972,548.042053 800.595947,548.042053 818.668213,548.042053 
	C818.668213,545.775269 818.668213,543.709900 818.668213,541.127930 
	C802.930359,541.127930 787.511047,541.127930 771.890747,541.127930 
	C771.890747,530.532288 771.890747,520.459045 771.890747,509.818726 
	C779.929810,509.818726 787.714478,509.818726 796.498230,509.818787 
M594.455627,487.502625 
	C594.455627,507.596863 594.455627,527.691101 594.455627,547.881958 
	C597.319458,547.881958 599.552368,547.881958 602.182739,547.881958 
	C602.182739,522.862122 602.182739,498.129456 602.182739,473.100525 
	C610.712952,473.100525 618.839294,473.100525 627.093506,473.100525 
	C627.093506,470.746796 627.093506,468.700012 627.093506,466.614380 
	C607.637146,466.614380 588.552917,466.614380 569.285217,466.614380 
	C569.285217,468.855194 569.285217,470.807404 569.285217,473.226990 
	C577.530151,473.226990 585.622009,473.226990 594.455872,473.226990 
	C594.455872,477.953796 594.455872,482.228210 594.455627,487.502625 
M651.752686,532.495605 
	C651.752686,510.582703 651.752686,488.669800 651.752686,466.618408 
	C648.906677,466.618408 646.688171,466.618408 644.446777,466.618408 
	C644.446777,493.970917 644.446777,520.973511 644.446777,547.830505 
	C647.053162,547.830505 649.275940,547.830505 651.752625,547.830505 
	C651.752625,542.786865 651.752625,538.140137 651.752686,532.495605 
M634.048706,597.926575 
	C634.053467,604.076965 633.988708,610.229004 634.128601,616.376282 
	C634.153076,617.449036 635.039490,618.502136 635.527771,619.564270 
	C636.160828,618.465149 637.284546,617.390198 637.340088,616.262634 
	C637.554260,611.915222 637.427002,607.550964 637.427002,603.193054 
	C637.863037,603.132202 638.299133,603.071350 638.735168,603.010498 
	C640.131531,606.983032 641.413696,611.001282 642.977356,614.906799 
	C643.650330,616.587585 644.906799,618.034790 645.898071,619.588135 
	C646.953735,618.110413 648.319824,616.762695 649.003601,615.129272 
	C650.673523,611.139954 652.027649,607.018433 653.508972,602.950134 
	C653.919617,603.021545 654.330261,603.092957 654.740906,603.164368 
	C654.740906,607.750549 654.661865,612.339355 654.808594,616.920837 
	C654.837463,617.821899 655.738342,618.694946 656.237061,619.580933 
	C656.824219,618.811584 657.907959,618.050842 657.921448,617.271545 
	C658.050598,609.830750 657.998535,602.386719 657.998535,595.113708 
	C654.463989,593.497375 653.142883,595.053528 652.235901,597.842529 
	C650.476868,603.251465 648.537903,608.601929 646.215576,615.296814 
	C643.869690,608.390137 642.094360,602.744202 639.966858,597.234314 
	C639.512207,596.056885 637.884460,594.995605 636.587158,594.634155 
	C636.010254,594.473511 634.912354,596.182556 634.048706,597.926575 
M456.151459,594.578308 
	C455.434937,595.709595 454.157166,596.813293 454.099976,597.976929 
	C453.865173,602.755920 454.001892,607.553162 454.001892,612.806274 
	C447.721436,606.856934 446.021179,598.176025 437.538757,593.435730 
	C437.538757,602.084656 437.456696,609.197998 437.625732,616.305359 
	C437.651550,617.390930 438.838196,618.448853 439.487946,619.519592 
	C439.964539,618.452881 440.819427,617.397766 440.852692,616.317383 
	C441.002045,611.468872 440.917725,606.613098 440.917725,601.200928 
	C447.097687,607.201111 448.925323,615.772522 456.850037,620.552917 
	C456.850037,611.113281 456.850037,603.042236 456.151459,594.578308 
M280.139160,596.384766 
	C274.266083,595.475586 268.393036,594.566406 262.068420,593.587280 
	C262.068420,602.411133 262.015503,609.704102 262.137726,616.994080 
	C262.152435,617.869873 263.116791,618.729736 263.640991,619.596985 
	C264.340973,618.710327 265.541046,617.878113 265.644684,616.926514 
	C265.925507,614.347961 265.740967,611.718811 265.740967,609.276855 
	C272.483887,606.968140 274.798889,611.427612 277.362732,615.546875 
	C279.925812,619.664917 279.960754,619.643188 283.912781,618.781433 
	C281.423920,615.149658 279.034241,611.662720 276.663849,608.203857 
	C282.467407,605.155212 283.353912,602.798340 280.139160,596.384766 
M159.195496,605.051331 
	C157.596695,595.313660 152.151474,592.599854 138.901993,595.071594 
	C138.901993,603.074219 138.901993,611.111755 138.901993,619.097229 
	C153.630920,621.500732 158.967453,617.960022 159.195496,605.051331 
M776.635620,597.145142 
	C775.961182,596.258545 775.286804,595.371948 774.612366,594.485352 
	C774.116455,595.380371 773.218384,596.263550 773.191772,597.172302 
	C773.049500,602.037415 773.124634,606.908875 773.124634,612.433105 
	C766.823242,606.572815 765.040710,598.072266 756.816895,593.107971 
	C756.816895,601.833923 756.742310,608.957397 756.890015,616.076294 
	C756.914734,617.268494 757.903625,618.440735 758.447021,619.622192 
	C758.989563,618.440674 759.955261,617.274963 760.000244,616.074768 
	C760.180359,611.272339 760.074585,606.459167 760.074585,600.285767 
	C764.414429,606.722900 767.773560,611.884888 771.355896,616.886902 
	C772.202393,618.068848 773.799683,618.713013 775.051636,619.604553 
	C775.585754,618.241089 776.540405,616.889954 776.580811,615.512024 
	C776.751892,609.686035 776.650940,603.852112 776.635620,597.145142 
M237.953629,619.730164 
	C238.634399,619.022583 239.315155,618.315002 239.995941,617.607422 
	C239.204788,617.174805 238.424469,616.393250 237.620667,616.368347 
	C233.523148,616.241211 229.419571,616.309570 225.230881,616.309570 
	C225.230881,613.279175 225.230881,610.890625 225.230881,608.140808 
	C229.018219,608.140808 232.493286,608.244019 235.954269,608.068726 
	C236.828079,608.024414 237.656799,607.090088 238.506241,606.564697 
	C237.652374,606.038635 236.818298,605.100708 235.941177,605.058533 
	C232.348831,604.885925 228.743362,604.986450 225.248199,604.986450 
	C225.248199,602.239075 225.248199,600.163635 225.248199,597.750305 
	C229.396149,597.750305 233.206467,597.850891 237.003586,597.671570 
	C237.833969,597.632446 238.617218,596.595215 239.422180,596.017639 
	C238.743835,595.456787 238.077560,594.427490 237.385208,594.409607 
	C232.110947,594.273560 226.831589,594.335022 221.408691,594.335022 
	C221.408691,603.054565 221.408691,611.113098 221.408691,619.750122 
	C226.818756,619.750122 231.938187,619.750122 237.953629,619.730164 
M501.768372,614.770630 
	C501.768372,612.191040 501.768372,609.611450 501.768372,606.980591 
	C497.768555,606.980591 494.509003,606.980591 491.249481,606.980591 
	C491.088409,607.529724 490.927368,608.078796 490.766296,608.627930 
	C493.063751,609.254944 495.361176,609.881897 498.406311,610.712952 
	C497.946014,612.093323 497.877258,614.109863 496.834381,615.089783 
	C493.621704,618.108826 487.025452,617.271912 484.175812,613.829285 
	C480.840393,609.799744 481.507416,601.932068 485.447479,598.830750 
	C489.082855,595.969238 494.102142,596.683350 497.387665,600.348328 
	C498.124939,601.170654 499.405457,601.506042 501.493500,602.639832 
	C499.732941,595.972290 496.036530,594.220154 491.366882,594.096436 
	C486.363861,593.963928 482.246918,595.702820 479.957092,600.524109 
	C477.032318,606.682190 478.581543,614.300415 483.438263,617.678711 
	C488.861786,621.451233 496.284241,620.592529 501.768372,614.770630 
M600.688110,619.949463 
	C608.223022,619.516907 612.150940,616.276428 613.193237,609.632996 
	C614.281128,602.698181 611.415100,596.955750 605.821838,594.863525 
	C599.405151,592.463257 592.474182,595.565735 590.302612,601.810425 
	C587.383423,610.204895 591.222778,617.471497 600.688110,619.949463 
M374.023804,618.817932 
	C377.583801,618.892090 381.391296,619.757812 384.613220,618.750610 
	C386.621613,618.122681 388.943573,614.655457 388.925812,612.480347 
	C388.908417,610.347290 386.428345,607.830444 384.424683,606.246826 
	C382.860565,605.010620 380.179779,605.286743 378.347626,604.261169 
	C376.639191,603.304932 375.395630,601.518127 373.947479,600.096863 
	C375.857635,599.112366 377.768585,597.366150 379.677765,597.368042 
	C381.415649,597.369751 383.139038,599.291138 384.893463,600.324402 
	C385.868164,600.898438 386.893463,601.386475 388.555542,602.259888 
	C386.888519,595.299194 381.631989,592.262695 375.811340,594.751221 
	C373.505280,595.737122 370.881683,598.674377 370.642670,600.957642 
	C370.447754,602.819641 373.232819,605.584717 375.344727,606.936890 
	C377.623596,608.396057 380.755585,608.452148 383.313629,609.578552 
	C384.438934,610.074036 385.738861,611.708618 385.729462,612.815552 
	C385.719971,613.932861 384.410126,615.426758 383.279602,616.074280 
	C379.872803,618.025696 375.525818,616.683716 373.188934,613.441406 
	C372.491730,612.473999 371.373871,611.809814 370.448761,611.006653 
	C369.919922,611.510010 369.391113,612.013367 368.862274,612.516724 
	C370.361816,614.486328 371.861389,616.455933 374.023804,618.817932 
M719.792786,605.158630 
	C718.024719,609.756958 716.256714,614.355225 714.488708,618.953552 
	C714.975769,619.313049 715.462769,619.672546 715.949829,620.032043 
	C716.964111,618.864014 718.549194,617.838867 718.884216,616.500793 
	C719.830872,612.718811 721.934753,611.395203 725.679077,611.979492 
	C727.294678,612.231628 728.982239,612.021851 730.505005,612.021851 
	C734.281860,619.181885 734.281860,619.181885 737.606079,619.174438 
	C734.411560,611.336975 731.352539,603.687317 728.117920,596.112549 
	C727.782532,595.327026 726.355530,594.493896 725.522095,594.575256 
	C724.639587,594.661316 723.514709,595.651306 723.102539,596.530884 
	C721.907532,599.081177 721.016907,601.774109 719.792786,605.158630 
M693.281555,609.035522 
	C697.292419,608.053467 699.533264,605.166931 698.706238,601.428772 
	C698.170959,599.009155 695.795593,595.671204 693.694519,595.200378 
	C689.370422,594.231323 684.677368,594.908936 679.830688,594.908936 
	C679.830688,602.440491 679.779663,609.717896 679.897766,616.992554 
	C679.911926,617.865234 680.844543,618.723022 681.351501,619.587708 
	C681.951782,618.642639 682.955383,617.744019 683.070618,616.743103 
	C683.330933,614.481995 683.152344,612.170288 683.152344,609.685425 
	C686.551270,609.487366 689.506165,609.315186 693.281555,609.035522 
M96.088348,619.540222 
	C97.248787,618.709167 99.229301,618.038879 99.429100,617.019531 
	C100.342094,612.361572 103.176147,611.401489 107.296959,611.992249 
	C108.732224,612.198059 110.221786,612.025085 111.498978,612.025085 
	C114.744698,619.376587 114.744698,619.376587 118.244423,618.831604 
	C115.222664,611.428528 112.291283,604.079041 109.174416,596.809021 
	C108.752541,595.825073 107.410088,594.655518 106.474884,594.638855 
	C105.582001,594.622986 104.206100,595.822876 103.830429,596.793335 
	C100.970459,604.181763 98.303764,611.645020 96.088348,619.540222 
M551.040771,597.585205 
	C547.006104,602.519714 547.069885,608.012817 549.209534,613.570862 
	C550.985901,618.185181 555.229431,620.464233 560.508667,619.940796 
	C565.497375,619.446167 568.606018,616.757629 569.075623,611.244812 
	C567.568420,611.583801 566.642517,612.657227 565.482422,613.322266 
	C563.177246,614.643677 560.606812,616.876892 558.400208,616.612305 
	C556.159241,616.343750 553.562317,613.886414 552.353333,611.704773 
	C551.275391,609.759705 551.127075,606.593201 551.933228,604.488403 
	C552.950317,601.833130 554.895386,598.882507 557.273987,597.566833 
	C560.143188,595.979858 563.344238,597.164551 565.406372,600.367920 
	C565.947876,601.209229 567.533569,601.378357 569.593018,602.267883 
	C565.967834,593.317322 559.167358,591.859436 551.040771,597.585205 
M187.361664,619.034912 
	C188.836151,618.590393 191.248444,618.546936 191.637131,617.638062 
	C194.807648,610.224365 197.600159,602.648987 200.923096,594.047424 
	C194.794922,595.559631 195.476135,600.489807 193.924789,603.678528 
	C192.191498,607.241028 191.017487,611.075623 189.211502,615.810608 
	C186.770950,608.996582 184.837112,603.197815 182.562714,597.535706 
	C182.012527,596.166016 180.337585,595.248108 179.179871,594.122437 
	C178.811234,594.499390 178.442596,594.876282 178.073959,595.253235 
	C181.048279,602.966248 184.022614,610.679321 187.361664,619.034912 
M310.378296,599.651611 
	C310.400482,604.317261 310.257721,608.992310 310.521149,613.644287 
	C310.636108,615.675110 311.583069,617.658752 312.152222,619.663818 
	C312.782623,617.745789 313.863678,615.849243 313.956696,613.905518 
	C314.209320,608.625305 314.043396,603.325134 314.043396,597.709045 
	C316.447723,597.709045 318.288086,597.865601 320.078064,597.633301 
	C320.808868,597.538452 321.430420,596.601624 322.101685,596.047913 
	C321.439850,595.493835 320.790894,594.477966 320.114136,594.459106 
	C314.952606,594.314941 309.783264,594.284912 304.622986,594.439758 
	C303.825806,594.463745 303.062439,595.614258 302.283417,596.243835 
	C303.029419,596.732910 303.715637,597.451660 304.533539,597.664490 
	C306.379883,598.144958 308.291260,598.375488 310.378296,599.651611 
M815.714661,594.537170 
	C812.970154,598.112915 810.225586,601.688721 807.444153,605.312622 
	C799.204956,594.675720 799.204956,594.675720 796.521240,595.304199 
	C800.605530,602.338501 807.470947,608.219482 805.664368,617.628235 
	C805.564331,618.149658 806.735779,618.915283 807.315430,619.567322 
	C807.877930,618.765808 809.027283,617.865784 808.911743,617.178162 
	C807.816406,610.656006 810.713867,605.622437 814.573853,600.860474 
	C815.721619,599.444458 816.813354,597.955139 817.678772,596.362488 
	C817.843689,596.058899 816.825012,595.112183 815.714661,594.537170 
M347.062347,608.477173 
	C347.057312,604.664307 347.142395,600.847595 346.978882,597.041504 
	C346.941711,596.175598 346.044067,595.346619 345.542480,594.500671 
	C344.948639,595.275879 343.853973,596.041870 343.839508,596.827698 
	C343.714783,603.622070 343.725708,610.421326 343.875610,617.215149 
	C343.893036,618.006470 345.000061,618.773621 345.601959,619.552002 
	C346.088165,618.674744 346.921814,617.824951 346.993774,616.914856 
	C347.189117,614.443542 347.061737,611.946716 347.062347,608.477173 
M412.666473,619.390259 
	C413.505707,618.572876 415.046814,617.777222 415.072876,616.934692 
	C415.277100,610.333557 415.246643,603.722473 415.126007,597.117432 
	C415.110321,596.258728 414.168121,595.416809 413.655090,594.567139 
	C413.087189,595.520508 412.039825,596.467896 412.027893,597.428223 
	C411.939697,604.525452 412.057861,611.625244 412.666473,619.390259 
z"/>
<path fill="#EC2025" opacity="1.000000" stroke="none" 
	d="
M325.453918,482.559631 
	C305.534210,434.292664 285.791779,386.365784 265.740723,337.689728 
	C246.862595,383.081940 228.369400,427.548553 209.592957,472.696259 
	C217.984589,472.696259 225.587418,472.696136 233.190262,472.696289 
	C247.354187,472.696564 261.519501,472.605927 275.680237,472.817505 
	C277.368927,472.842743 279.987488,474.111755 280.566284,475.483185 
	C290.459686,498.925018 300.101898,522.472900 309.779388,546.005676 
	C310.011383,546.569763 310.013824,547.228149 310.184875,548.187622 
	C238.541077,548.187622 167.194473,548.187622 95.195900,548.187622 
	C98.891899,539.307861 102.383385,530.922668 105.872391,522.536438 
	C142.860260,433.631714 179.890350,344.744537 216.713242,255.771561 
	C218.613174,251.180878 220.785858,249.764130 225.704453,249.814774 
	C252.862946,250.094421 280.026276,250.022079 307.186737,249.863342 
	C310.996979,249.841064 312.861450,250.729492 314.431763,254.560883 
	C343.691437,325.950409 373.177612,397.247070 402.523254,468.601501 
	C403.772034,471.637878 405.260010,472.700470 408.667603,472.801849 
	C434.480011,473.569885 451.386414,459.069366 463.609283,438.946136 
	C493.102356,390.389923 459.099823,327.789642 402.460144,325.250732 
	C392.278961,328.541077 389.788300,321.726257 386.832916,314.185852 
	C379.006348,294.217072 370.583557,274.482056 362.412872,254.647888 
	C361.857605,253.299957 361.425598,251.901245 360.706909,249.881531 
	C364.789185,249.881531 368.391418,249.772125 371.985199,249.900131 
	C389.107147,250.510056 406.447327,249.663544 423.307678,252.108597 
	C484.707153,261.012665 535.057190,309.896332 546.847778,370.572449 
	C560.413025,440.381287 525.557129,508.318695 460.883698,538.057251 
	C445.843506,544.973145 429.966644,548.308777 413.457489,548.436096 
	C394.795532,548.580078 376.131042,548.393311 357.469116,548.538208 
	C354.056763,548.564697 352.214905,547.777283 350.825378,544.307312 
	C342.600830,523.768616 334.063416,503.355255 325.453918,482.559631 
M299.291931,362.203369 
	C321.255890,415.439911 343.252045,468.663269 365.111450,521.942688 
	C366.568329,525.493713 368.203369,527.035889 372.316895,526.937744 
	C385.642487,526.619873 399.028503,527.515686 412.298462,526.599670 
	C422.984680,525.862000 434.081299,524.690063 444.057434,521.101868 
	C500.561707,500.778381 536.497253,442.500183 526.431213,381.355560 
	C517.692749,328.274841 486.279510,293.372314 435.025848,276.719879 
	C421.645294,272.372498 407.794434,271.060822 393.117676,272.002747 
	C397.360199,282.285126 401.327423,292.138367 405.577911,301.867889 
	C406.051361,302.951569 408.083496,303.815002 409.481567,303.967682 
	C463.695923,309.888031 502.091614,358.818481 495.146729,413.321442 
	C492.209595,436.371674 482.043610,455.814056 465.077759,471.567444 
	C447.907501,487.510590 428.235992,496.458984 403.965729,494.461151 
	C389.541870,493.273804 389.584137,494.193420 384.072571,480.804352 
	C356.001984,412.613678 327.831787,344.463928 299.835968,276.242645 
	C298.374725,272.681854 296.543976,271.674194 292.844727,271.713928 
	C274.680359,271.909149 256.511597,271.906586 238.347214,271.710632 
	C234.747940,271.671844 233.183975,272.883057 231.828049,276.154510 
	C199.256927,354.740662 166.561447,433.275238 133.892532,511.820831 
	C131.891373,516.632202 129.923477,521.457397 127.817848,526.573242 
	C178.288742,526.573242 227.880127,526.573242 278.169312,526.573242 
	C274.218414,516.917725 270.312378,507.775909 266.767792,498.495972 
	C265.482269,495.130310 263.631531,494.142273 260.110931,494.162842 
	C234.445404,494.312897 208.778610,494.243164 183.112213,494.242920 
	C181.348785,494.242920 179.585373,494.242920 177.072983,494.242920 
	C206.689453,423.052765 235.981094,352.643402 265.832458,280.888580 
	C277.268341,308.653473 288.147797,335.067474 299.291931,362.203369 
z"/>
<path fill="#EE2B2C" opacity="1.000000" stroke="none" 
	d="
M697.215637,506.659851 
	C700.638916,516.262268 703.933472,525.493225 707.538269,535.593201 
	C708.313171,533.870300 708.866394,532.839233 709.253845,531.749268 
	C716.101562,512.485413 722.924011,493.212585 729.763611,473.945801 
	C732.869446,465.196655 732.880859,465.200714 742.777466,466.903473 
	C742.777466,493.768494 742.777466,520.674194 742.777466,547.874878 
	C740.553223,547.874878 738.470886,547.874878 735.792114,547.874878 
	C735.792114,526.050720 735.792114,504.185791 735.792114,482.320862 
	C735.383606,482.224548 734.975098,482.128265 734.566589,482.031952 
	C733.803833,483.885132 732.959473,485.709381 732.290894,487.595947 
	C725.627625,506.397919 718.973572,525.203247 712.374695,544.027893 
	C711.519592,546.467346 710.991699,548.434204 707.455811,548.312317 
	C704.220215,548.200745 703.713623,546.404358 702.931396,544.176636 
	C695.993164,524.417786 689.021484,504.670624 682.057068,484.920929 
	C681.636047,483.726898 681.193176,482.540558 679.902100,481.535858 
	C679.902100,503.527496 679.902100,525.519104 679.902100,547.842957 
	C677.227783,547.842957 675.017090,547.842957 672.534790,547.842957 
	C672.534790,520.748962 672.534790,493.849854 672.534790,466.633972 
	C676.034729,466.633972 679.297546,466.633972 683.077759,466.633972 
	C687.684265,479.673187 692.385559,492.980774 697.215637,506.659851 
z"/>
<path fill="#EE2E2F" opacity="1.000000" stroke="none" 
	d="
M795.998657,509.818756 
	C787.714478,509.818726 779.929810,509.818726 771.890747,509.818726 
	C771.890747,520.459045 771.890747,530.532288 771.890747,541.127930 
	C787.511047,541.127930 802.930359,541.127930 818.668213,541.127930 
	C818.668213,543.709900 818.668213,545.775269 818.668213,548.042053 
	C800.595947,548.042053 782.633972,548.042053 764.346741,548.042053 
	C764.346741,520.897461 764.346741,493.864838 764.346741,466.556519 
	C781.977661,466.556519 799.412476,466.556519 817.285950,466.556519 
	C817.285950,468.624939 817.285950,470.667511 817.285950,473.131226 
	C802.378662,473.131226 787.429382,473.131226 772.056030,473.131226 
	C772.056030,483.093842 772.056030,492.654266 772.056030,502.803894 
	C785.760132,502.803894 799.494934,502.803894 813.470093,502.803894 
	C813.470093,505.303009 813.470093,507.221924 813.470093,509.818787 
	C807.705261,509.818787 802.101746,509.818787 795.998657,509.818756 
z"/>
<path fill="#EE272A" opacity="1.000000" stroke="none" 
	d="
M594.455750,487.002625 
	C594.455872,482.228210 594.455872,477.953796 594.455872,473.226990 
	C585.622009,473.226990 577.530151,473.226990 569.285217,473.226990 
	C569.285217,470.807404 569.285217,468.855194 569.285217,466.614380 
	C588.552917,466.614380 607.637146,466.614380 627.093506,466.614380 
	C627.093506,468.700012 627.093506,470.746796 627.093506,473.100525 
	C618.839294,473.100525 610.712952,473.100525 602.182739,473.100525 
	C602.182739,498.129456 602.182739,522.862122 602.182739,547.881958 
	C599.552368,547.881958 597.319458,547.881958 594.455627,547.881958 
	C594.455627,527.691101 594.455627,507.596863 594.455750,487.002625 
z"/>
<path fill="#EF3331" opacity="1.000000" stroke="none" 
	d="
M651.752686,532.994507 
	C651.752625,538.140137 651.752625,542.786865 651.752625,547.830505 
	C649.275940,547.830505 647.053162,547.830505 644.446777,547.830505 
	C644.446777,520.973511 644.446777,493.970917 644.446777,466.618408 
	C646.688171,466.618408 648.906677,466.618408 651.752686,466.618408 
	C651.752686,488.669800 651.752686,510.582703 651.752686,532.994507 
z"/>
<path fill="#EF3430" opacity="1.000000" stroke="none" 
	d="
M634.049805,597.484741 
	C634.912354,596.182556 636.010254,594.473511 636.587158,594.634155 
	C637.884460,594.995605 639.512207,596.056885 639.966858,597.234314 
	C642.094360,602.744202 643.869690,608.390137 646.215576,615.296814 
	C648.537903,608.601929 650.476868,603.251465 652.235901,597.842529 
	C653.142883,595.053528 654.463989,593.497375 657.998535,595.113708 
	C657.998535,602.386719 658.050598,609.830750 657.921448,617.271545 
	C657.907959,618.050842 656.824219,618.811584 656.237061,619.580933 
	C655.738342,618.694946 654.837463,617.821899 654.808594,616.920837 
	C654.661865,612.339355 654.740906,607.750549 654.740906,603.164368 
	C654.330261,603.092957 653.919617,603.021545 653.508972,602.950134 
	C652.027649,607.018433 650.673523,611.139954 649.003601,615.129272 
	C648.319824,616.762695 646.953735,618.110413 645.898071,619.588135 
	C644.906799,618.034790 643.650330,616.587585 642.977356,614.906799 
	C641.413696,611.001282 640.131531,606.983032 638.735168,603.010498 
	C638.299133,603.071350 637.863037,603.132202 637.427002,603.193054 
	C637.427002,607.550964 637.554260,611.915222 637.340088,616.262634 
	C637.284546,617.390198 636.160828,618.465149 635.527832,619.564270 
	C635.039490,618.502136 634.153076,617.449036 634.128601,616.376282 
	C633.988708,610.229004 634.053467,604.076965 634.049805,597.484741 
z"/>
<path fill="#EE322E" opacity="1.000000" stroke="none" 
	d="
M456.500732,594.774780 
	C456.850037,603.042236 456.850037,611.113281 456.850037,620.552917 
	C448.925323,615.772522 447.097687,607.201111 440.917725,601.200928 
	C440.917725,606.613098 441.002045,611.468872 440.852692,616.317383 
	C440.819427,617.397766 439.964539,618.452881 439.487946,619.519592 
	C438.838196,618.448853 437.651550,617.390930 437.625732,616.305359 
	C437.456696,609.197998 437.538757,602.084656 437.538757,593.435730 
	C446.021179,598.176025 447.721436,606.856934 454.001892,612.806274 
	C454.001892,607.553162 453.865173,602.755920 454.099976,597.976929 
	C454.157166,596.813293 455.434937,595.709595 456.500732,594.774780 
z"/>
<path fill="#EF3E37" opacity="1.000000" stroke="none" 
	d="
M280.419128,596.672729 
	C283.353912,602.798340 282.467407,605.155212 276.663849,608.203857 
	C279.034241,611.662720 281.423920,615.149658 283.912781,618.781433 
	C279.960754,619.643188 279.925812,619.664917 277.362732,615.546875 
	C274.798889,611.427612 272.483887,606.968140 265.740967,609.276855 
	C265.740967,611.718811 265.925507,614.347961 265.644684,616.926514 
	C265.541046,617.878113 264.340973,618.710327 263.640991,619.596985 
	C263.116791,618.729736 262.152435,617.869873 262.137726,616.994080 
	C262.015503,609.704102 262.068420,602.411133 262.068420,593.587280 
	C268.393036,594.566406 274.266083,595.475586 280.419128,596.672729 
M276.047211,604.990723 
	C276.830627,603.399231 278.417877,601.653809 278.151550,600.263428 
	C277.925018,599.080688 275.659851,597.743042 274.123474,597.478088 
	C271.488312,597.023682 268.718109,597.352478 265.874603,597.352478 
	C265.874603,600.328064 265.874603,602.584473 265.874603,605.155701 
	C269.145996,605.155701 272.205902,605.155701 276.047211,604.990723 
z"/>
<path fill="#EF3130" opacity="1.000000" stroke="none" 
	d="
M159.231598,605.443481 
	C158.967453,617.960022 153.630920,621.500732 138.901993,619.097229 
	C138.901993,611.111755 138.901993,603.074219 138.901993,595.071594 
	C152.151474,592.599854 157.596695,595.313660 159.231598,605.443481 
M150.808044,597.978821 
	C148.045486,597.978821 145.282928,597.978821 142.325302,597.978821 
	C142.325302,604.128357 142.325302,610.151611 142.325302,616.479065 
	C147.168823,615.965759 152.534378,618.119812 155.005615,611.947510 
	C157.065582,606.802429 155.760391,601.621277 150.808044,597.978821 
z"/>
<path fill="#EF3C37" opacity="1.000000" stroke="none" 
	d="
M776.642517,597.583130 
	C776.650940,603.852112 776.751892,609.686035 776.580811,615.512024 
	C776.540405,616.889954 775.585754,618.241089 775.051636,619.604553 
	C773.799683,618.713013 772.202393,618.068848 771.355896,616.886902 
	C767.773560,611.884888 764.414429,606.722900 760.074585,600.285767 
	C760.074585,606.459167 760.180359,611.272339 760.000244,616.074768 
	C759.955261,617.274963 758.989563,618.440674 758.447021,619.622192 
	C757.903625,618.440735 756.914734,617.268494 756.890015,616.076294 
	C756.742310,608.957397 756.816895,601.833923 756.816895,593.107971 
	C765.040710,598.072266 766.823242,606.572815 773.124634,612.433105 
	C773.124634,606.908875 773.049500,602.037415 773.191772,597.172302 
	C773.218384,596.263550 774.116455,595.380371 774.612366,594.485352 
	C775.286804,595.371948 775.961182,596.258545 776.642517,597.583130 
z"/>
<path fill="#F14D44" opacity="1.000000" stroke="none" 
	d="
M237.505615,619.740112 
	C231.938187,619.750122 226.818756,619.750122 221.408691,619.750122 
	C221.408691,611.113098 221.408691,603.054565 221.408691,594.335022 
	C226.831589,594.335022 232.110947,594.273560 237.385208,594.409607 
	C238.077560,594.427490 238.743835,595.456787 239.422180,596.017639 
	C238.617218,596.595215 237.833969,597.632446 237.003586,597.671570 
	C233.206467,597.850891 229.396149,597.750305 225.248199,597.750305 
	C225.248199,600.163635 225.248199,602.239075 225.248199,604.986450 
	C228.743362,604.986450 232.348831,604.885925 235.941177,605.058533 
	C236.818298,605.100708 237.652374,606.038635 238.506256,606.564697 
	C237.656799,607.090088 236.828079,608.024414 235.954269,608.068726 
	C232.493286,608.244019 229.018219,608.140808 225.230881,608.140808 
	C225.230881,610.890625 225.230881,613.279175 225.230881,616.309570 
	C229.419571,616.309570 233.523148,616.241211 237.620667,616.368347 
	C238.424469,616.393250 239.204788,617.174805 239.995926,617.607422 
	C239.315155,618.315002 238.634399,619.022583 237.505615,619.740112 
z"/>
<path fill="#EF3933" opacity="1.000000" stroke="none" 
	d="
M501.687805,615.173706 
	C496.284241,620.592529 488.861786,621.451233 483.438263,617.678711 
	C478.581543,614.300415 477.032318,606.682190 479.957092,600.524109 
	C482.246918,595.702820 486.363861,593.963928 491.366882,594.096436 
	C496.036530,594.220154 499.732941,595.972290 501.493500,602.639832 
	C499.405457,601.506042 498.124939,601.170654 497.387665,600.348328 
	C494.102142,596.683350 489.082855,595.969238 485.447479,598.830750 
	C481.507416,601.932068 480.840393,609.799744 484.175812,613.829285 
	C487.025452,617.271912 493.621704,618.108826 496.834381,615.089783 
	C497.877258,614.109863 497.946014,612.093323 498.406311,610.712952 
	C495.361176,609.881897 493.063751,609.254944 490.766296,608.627930 
	C490.927368,608.078796 491.088409,607.529724 491.249481,606.980591 
	C494.509003,606.980591 497.768555,606.980591 501.768372,606.980591 
	C501.768372,609.611450 501.768372,612.191040 501.687805,615.173706 
z"/>
<path fill="#EF3732" opacity="1.000000" stroke="none" 
	d="
M600.278992,619.933655 
	C591.222778,617.471497 587.383423,610.204895 590.302612,601.810425 
	C592.474182,595.565735 599.405151,592.463257 605.821838,594.863525 
	C611.415100,596.955750 614.281128,602.698181 613.193237,609.632996 
	C612.150940,616.276428 608.223022,619.516907 600.278992,619.933655 
M598.448486,616.401733 
	C602.173584,617.768555 605.355530,616.894775 607.856689,613.888367 
	C610.684509,610.489258 610.713684,603.781250 607.910767,600.300964 
	C605.459595,597.257385 602.299744,596.257324 598.558167,597.679626 
	C594.422974,599.251648 592.069275,603.395691 593.257874,608.807739 
	C593.834473,611.433105 596.184998,613.668762 598.448486,616.401733 
z"/>
<path fill="#EF3933" opacity="1.000000" stroke="none" 
	d="
M373.692383,618.621704 
	C371.861389,616.455933 370.361816,614.486328 368.862274,612.516724 
	C369.391113,612.013367 369.919922,611.510010 370.448761,611.006653 
	C371.373871,611.809814 372.491730,612.473999 373.188934,613.441406 
	C375.525818,616.683716 379.872803,618.025696 383.279602,616.074280 
	C384.410126,615.426758 385.719971,613.932861 385.729462,612.815552 
	C385.738861,611.708618 384.438934,610.074036 383.313629,609.578552 
	C380.755585,608.452148 377.623596,608.396057 375.344727,606.936890 
	C373.232819,605.584717 370.447754,602.819641 370.642670,600.957642 
	C370.881683,598.674377 373.505280,595.737122 375.811340,594.751221 
	C381.631989,592.262695 386.888519,595.299194 388.555542,602.259888 
	C386.893463,601.386475 385.868164,600.898438 384.893463,600.324402 
	C383.139038,599.291138 381.415649,597.369751 379.677765,597.368042 
	C377.768585,597.366150 375.857635,599.112366 373.947479,600.096863 
	C375.395630,601.518127 376.639191,603.304932 378.347626,604.261169 
	C380.179779,605.286743 382.860565,605.010620 384.424683,606.246826 
	C386.428345,607.830444 388.908417,610.347290 388.925812,612.480347 
	C388.943573,614.655457 386.621613,618.122681 384.613220,618.750610 
	C381.391296,619.757812 377.583801,618.892090 373.692383,618.621704 
z"/>
<path fill="#EF3933" opacity="1.000000" stroke="none" 
	d="
M719.899780,604.784851 
	C721.016907,601.774109 721.907532,599.081177 723.102539,596.530884 
	C723.514709,595.651306 724.639587,594.661316 725.522095,594.575256 
	C726.355530,594.493896 727.782532,595.327026 728.117920,596.112549 
	C731.352539,603.687317 734.411560,611.336975 737.606079,619.174438 
	C734.281860,619.181885 734.281860,619.181885 730.505005,612.021851 
	C728.982239,612.021851 727.294678,612.231628 725.679077,611.979492 
	C721.934753,611.395203 719.830872,612.718811 718.884216,616.500793 
	C718.549194,617.838867 716.964111,618.864014 715.949829,620.032043 
	C715.462769,619.672546 714.975769,619.313049 714.488708,618.953552 
	C716.256714,614.355225 718.024719,609.756958 719.899780,604.784851 
M729.354248,607.978882 
	C728.197754,604.824158 727.041260,601.669495 725.629150,597.817627 
	C724.212463,602.009766 723.090393,605.330078 721.760315,609.265930 
	C724.744141,609.054810 726.994446,608.895569 729.354248,607.978882 
z"/>
<path fill="#EF3532" opacity="1.000000" stroke="none" 
	d="
M692.871338,609.089233 
	C689.506165,609.315186 686.551270,609.487366 683.152344,609.685425 
	C683.152344,612.170288 683.330933,614.481995 683.070618,616.743103 
	C682.955383,617.744019 681.951782,618.642639 681.351501,619.587708 
	C680.844543,618.723022 679.911926,617.865234 679.897766,616.992554 
	C679.779663,609.717896 679.830688,602.440491 679.830688,594.908936 
	C684.677368,594.908936 689.370422,594.231323 693.694519,595.200378 
	C695.795593,595.671204 698.170959,599.009155 698.706238,601.428772 
	C699.533264,605.166931 697.292419,608.053467 692.871338,609.089233 
M691.974182,606.030457 
	C695.084290,605.243774 696.162231,602.764465 694.894470,600.384705 
	C692.207703,595.341370 687.463928,598.470398 683.443604,597.705078 
	C683.443604,600.814087 683.443604,603.345154 683.443604,606.151855 
	C686.202820,606.151855 688.645813,606.151855 691.974182,606.030457 
z"/>
<path fill="#EF3A34" opacity="1.000000" stroke="none" 
	d="
M95.832611,619.312622 
	C98.303764,611.645020 100.970459,604.181763 103.830429,596.793335 
	C104.206100,595.822876 105.582001,594.622986 106.474884,594.638855 
	C107.410088,594.655518 108.752541,595.825073 109.174416,596.809021 
	C112.291283,604.079041 115.222664,611.428528 118.244423,618.831604 
	C114.744698,619.376587 114.744698,619.376587 111.498978,612.025085 
	C110.221786,612.025085 108.732224,612.198059 107.296959,611.992249 
	C103.176147,611.401489 100.342094,612.361572 99.429100,617.019531 
	C99.229301,618.038879 97.248787,618.709167 95.832611,619.312622 
M108.246475,609.133240 
	C108.734192,608.259399 109.802643,607.217957 109.607384,606.541077 
	C108.831734,603.852600 107.661446,601.277954 106.421684,598.109985 
	C105.030563,601.982422 103.873169,605.204224 102.554352,608.875427 
	C104.513084,608.981018 105.944046,609.058167 108.246475,609.133240 
z"/>
<path fill="#EF3933" opacity="1.000000" stroke="none" 
	d="
M551.317749,597.327759 
	C559.167358,591.859436 565.967834,593.317322 569.593018,602.267883 
	C567.533569,601.378357 565.947876,601.209229 565.406372,600.367920 
	C563.344238,597.164551 560.143188,595.979858 557.273987,597.566833 
	C554.895386,598.882507 552.950317,601.833130 551.933228,604.488403 
	C551.127075,606.593201 551.275391,609.759705 552.353333,611.704773 
	C553.562317,613.886414 556.159241,616.343750 558.400208,616.612305 
	C560.606812,616.876892 563.177246,614.643677 565.482422,613.322266 
	C566.642517,612.657227 567.568420,611.583801 569.075623,611.244812 
	C568.606018,616.757629 565.497375,619.446167 560.508667,619.940796 
	C555.229431,620.464233 550.985901,618.185181 549.209534,613.570862 
	C547.069885,608.012817 547.006104,602.519714 551.317749,597.327759 
z"/>
<path fill="#EF3B35" opacity="1.000000" stroke="none" 
	d="
M187.179306,618.713623 
	C184.022614,610.679321 181.048279,602.966248 178.073959,595.253235 
	C178.442596,594.876282 178.811234,594.499390 179.179871,594.122437 
	C180.337585,595.248108 182.012527,596.166016 182.562714,597.535706 
	C184.837112,603.197815 186.770950,608.996582 189.211502,615.810608 
	C191.017487,611.075623 192.191498,607.241028 193.924789,603.678528 
	C195.476135,600.489807 194.794922,595.559631 200.923096,594.047424 
	C197.600159,602.648987 194.807648,610.224365 191.637131,617.638062 
	C191.248444,618.546936 188.836151,618.590393 187.179306,618.713623 
z"/>
<path fill="#F04640" opacity="1.000000" stroke="none" 
	d="
M310.277222,599.179688 
	C308.291260,598.375488 306.379883,598.144958 304.533539,597.664490 
	C303.715637,597.451660 303.029419,596.732910 302.283447,596.243835 
	C303.062439,595.614258 303.825806,594.463745 304.622986,594.439758 
	C309.783264,594.284912 314.952606,594.314941 320.114136,594.459106 
	C320.790894,594.477966 321.439850,595.493835 322.101685,596.047913 
	C321.430420,596.601624 320.808868,597.538452 320.078064,597.633301 
	C318.288086,597.865601 316.447723,597.709045 314.043396,597.709045 
	C314.043396,603.325134 314.209320,608.625305 313.956696,613.905518 
	C313.863678,615.849243 312.782623,617.745789 312.152222,619.663818 
	C311.583069,617.658752 310.636108,615.675110 310.521149,613.644287 
	C310.257721,608.992310 310.400482,604.317261 310.277222,599.179688 
z"/>
<path fill="#EF3732" opacity="1.000000" stroke="none" 
	d="
M816.033569,594.499634 
	C816.825012,595.112183 817.843689,596.058899 817.678772,596.362488 
	C816.813354,597.955139 815.721619,599.444458 814.573853,600.860474 
	C810.713867,605.622437 807.816406,610.656006 808.911743,617.178162 
	C809.027283,617.865784 807.877930,618.765808 807.315430,619.567322 
	C806.735779,618.915283 805.564331,618.149658 805.664368,617.628235 
	C807.470947,608.219482 800.605530,602.338501 796.521240,595.304199 
	C799.204956,594.675720 799.204956,594.675720 807.444153,605.312622 
	C810.225586,601.688721 812.970154,598.112915 816.033569,594.499634 
z"/>
<path fill="#EE272A" opacity="1.000000" stroke="none" 
	d="
M347.062347,608.968567 
	C347.061737,611.946716 347.189117,614.443542 346.993774,616.914856 
	C346.921814,617.824951 346.088165,618.674744 345.601929,619.552002 
	C345.000061,618.773621 343.893036,618.006470 343.875610,617.215149 
	C343.725708,610.421326 343.714783,603.622070 343.839508,596.827698 
	C343.853973,596.041870 344.948639,595.275879 345.542480,594.500671 
	C346.044067,595.346619 346.941711,596.175598 346.978882,597.041504 
	C347.142395,600.847595 347.057312,604.664307 347.062347,608.968567 
z"/>
<path fill="#ED2328" opacity="1.000000" stroke="none" 
	d="
M412.388794,619.057251 
	C412.057861,611.625244 411.939697,604.525452 412.027893,597.428223 
	C412.039825,596.467896 413.087189,595.520508 413.655090,594.567139 
	C414.168121,595.416809 415.110321,596.258728 415.126007,597.117432 
	C415.246643,603.722473 415.277100,610.333557 415.072876,616.934692 
	C415.046814,617.777222 413.505707,618.572876 412.388794,619.057251 
z"/>
<path fill="#262122" opacity="1.000000" stroke="none" 
	d="
M299.159607,361.842438 
	C288.147797,335.067474 277.268341,308.653473 265.832458,280.888580 
	C235.981094,352.643402 206.689453,423.052765 177.072983,494.242920 
	C179.585373,494.242920 181.348785,494.242920 183.112213,494.242920 
	C208.778610,494.243164 234.445404,494.312897 260.110931,494.162842 
	C263.631531,494.142273 265.482269,495.130310 266.767792,498.495972 
	C270.312378,507.775909 274.218414,516.917725 278.169312,526.573242 
	C227.880127,526.573242 178.288742,526.573242 127.817848,526.573242 
	C129.923477,521.457397 131.891373,516.632202 133.892532,511.820831 
	C166.561447,433.275238 199.256927,354.740662 231.828049,276.154510 
	C233.183975,272.883057 234.747940,271.671844 238.347214,271.710632 
	C256.511597,271.906586 274.680359,271.909149 292.844727,271.713928 
	C296.543976,271.674194 298.374725,272.681854 299.835968,276.242645 
	C327.831787,344.463928 356.001984,412.613678 384.072571,480.804352 
	C389.584137,494.193420 389.541870,493.273804 403.965729,494.461151 
	C428.235992,496.458984 447.907501,487.510590 465.077759,471.567444 
	C482.043610,455.814056 492.209595,436.371674 495.146729,413.321442 
	C502.091614,358.818481 463.695923,309.888031 409.481567,303.967682 
	C408.083496,303.815002 406.051361,302.951569 405.577911,301.867889 
	C401.327423,292.138367 397.360199,282.285126 393.117676,272.002747 
	C407.794434,271.060822 421.645294,272.372498 435.025848,276.719879 
	C486.279510,293.372314 517.692749,328.274841 526.431213,381.355560 
	C536.497253,442.500183 500.561707,500.778381 444.057434,521.101868 
	C434.081299,524.690063 422.984680,525.862000 412.298462,526.599670 
	C399.028503,527.515686 385.642487,526.619873 372.316895,526.937744 
	C368.203369,527.035889 366.568329,525.493713 365.111450,521.942688 
	C343.252045,468.663269 321.255890,415.439911 299.159607,361.842438 
z"/>
<path fill="#FEEBE5" opacity="1.000000" stroke="none" 
	d="
M275.656494,605.073242 
	C272.205902,605.155701 269.145996,605.155701 265.874603,605.155701 
	C265.874603,602.584473 265.874603,600.328064 265.874603,597.352478 
	C268.718109,597.352478 271.488312,597.023682 274.123474,597.478088 
	C275.659851,597.743042 277.925018,599.080688 278.151550,600.263428 
	C278.417877,601.653809 276.830627,603.399231 275.656494,605.073242 
z"/>
<path fill="#FFF8F6" opacity="1.000000" stroke="none" 
	d="
M151.220123,598.091797 
	C155.760391,601.621277 157.065582,606.802429 155.005615,611.947510 
	C152.534378,618.119812 147.168823,615.965759 142.325302,616.479065 
	C142.325302,610.151611 142.325302,604.128357 142.325302,597.978821 
	C145.282928,597.978821 148.045486,597.978821 151.220123,598.091797 
z"/>
<path fill="#FFF9F6" opacity="1.000000" stroke="none" 
	d="
M598.090454,616.241333 
	C596.184998,613.668762 593.834473,611.433105 593.257874,608.807739 
	C592.069275,603.395691 594.422974,599.251648 598.558167,597.679626 
	C602.299744,596.257324 605.459595,597.257385 607.910767,600.300964 
	C610.713684,603.781250 610.684509,610.489258 607.856689,613.888367 
	C605.355530,616.894775 602.173584,617.768555 598.090454,616.241333 
z"/>
<path fill="#FEF1EC" opacity="1.000000" stroke="none" 
	d="
M729.299500,608.357605 
	C726.994446,608.895569 724.744141,609.054810 721.760315,609.265930 
	C723.090393,605.330078 724.212463,602.009766 725.629150,597.817627 
	C727.041260,601.669495 728.197754,604.824158 729.299500,608.357605 
z"/>
<path fill="#FFF8F5" opacity="1.000000" stroke="none" 
	d="
M691.531494,606.091187 
	C688.645813,606.151855 686.202820,606.151855 683.443604,606.151855 
	C683.443604,603.345154 683.443604,600.814087 683.443604,597.705078 
	C687.463928,598.470398 692.207703,595.341370 694.894470,600.384705 
	C696.162231,602.764465 695.084290,605.243774 691.531494,606.091187 
z"/>
<path fill="#FEF1EC" opacity="1.000000" stroke="none" 
	d="
M107.810745,609.134277 
	C105.944046,609.058167 104.513084,608.981018 102.554352,608.875427 
	C103.873169,605.204224 105.030563,601.982422 106.421684,598.109985 
	C107.661446,601.277954 108.831734,603.852600 109.607384,606.541077 
	C109.802643,607.217957 108.734192,608.259399 107.810745,609.134277 
z"/>
</svg>